# xmcd CD database file
#
# Track frame offsets:
#	150
#	23063
#	48835
#	76328
#	107680
#	126195
#	158098
#	180570
#	212555
#	241503
#	263678
#
# Disc length: 3920 seconds
#
# Revision: 0
# Processed by: cddbd v1.5.1PL0 Copyright (c) Steve Scherf et al.
# Submitted via: CDex 1.51
#
DISCID=7c0f4e0b
DTITLE=Various Artist - Sensitive Jazz
DYEAR=1900
DGENRE=Jazz
TTITLE0=Oscar Peterson - The Shadow Of Your Smile
TTITLE1=Oscar Peterson With Milt Jackson - Heartstrings
TTITLE2=Mal Waldron - Left Alone
TTITLE3=Mal Waldron - Cat Walk
TTITLE4=Miles Davis - It Never Entered My Mind
TTITLE5=Bill Evans - Waltz For Debby
TTITLE6=Bill Evans - My Foolish Heart
TTITLE7=Modern Jazz Quartet - DJango
TTITLE8=The Dave Brubeck Quartet - Someday My Prince Will Come
TTITLE9=Bill Evance - When I Fall In Love
TTITLE10=Thelonious Monk - 'Round Midnight
EXTD=
EXTT0=
EXTT1=
EXTT2=
EXTT3=
EXTT4=
EXTT5=
EXTT6=
EXTT7=
EXTT8=
EXTT9=
EXTT10=
PLAYORDER=
